<svg width="246" height="58" viewBox="0 0 246 58" fill="none" xmlns="http://www.w3.org/2000/svg">
<g clip-path="url(#clip0_3_2)">
<path d="M79.6094 46C78.5547 46 77.9688 45.4141 77.9688 44.3594V12.7188C77.9688 11.6641 78.5547 11.0781 79.6094 11.0781H92.3594C100.234 11.0781 105.133 16 105.133 23.1953C105.133 30.4141 100.117 35.1719 92.125 35.1719H88.0234C86.9688 35.1719 86.3828 35.7344 86.3828 36.8125V44.3594C86.3828 45.4141 85.7969 46 84.7422 46H79.6094ZM86.3828 26.875C86.3828 27.9531 86.9688 28.5156 88.0234 28.5156H90.5547C94.3516 28.5156 96.3906 26.3828 96.3906 23.1953C96.3906 19.9375 94.3516 17.8984 90.5312 17.8984H88.0234C86.9688 17.8984 86.3828 18.4609 86.3828 19.5391V26.875ZM119.664 46.4922C111.438 46.4922 106.469 41.0547 106.469 32.9922C106.469 24.9062 111.438 19.4688 119.664 19.4688C127.914 19.4688 132.883 24.9062 132.883 32.9922C132.883 41.0547 127.914 46.4922 119.664 46.4922ZM119.711 40.1406C122.711 40.1406 124.398 37.2812 124.398 32.9453C124.398 28.5859 122.711 25.8203 119.711 25.8203C116.617 25.8203 114.953 28.5859 114.953 32.9453C114.953 37.2812 116.617 40.1406 119.711 40.1406ZM137.5 46C136.445 46 135.859 45.4141 135.859 44.3594V21.4375C135.859 20.3828 136.445 19.7969 137.5 19.7969H142.305C143.359 19.7969 143.945 20.3594 143.945 21.4375V22.0234C143.945 23.4297 144.203 23.4297 145 22.2344C146.266 20.3828 148.211 19.4688 150.32 19.4688C150.602 19.4688 150.906 19.4922 151.188 19.5156C152.195 19.6094 152.664 20.2656 152.664 21.2734V25.1875C152.664 26.3359 152.078 26.7812 151.047 26.6641C150.461 26.5938 149.852 26.5703 149.383 26.5703C146.406 26.5703 144.203 28.6562 144.203 31.7734V44.3594C144.203 45.4375 143.617 46 142.562 46H137.5ZM157.68 15.2031C157.68 14.1484 158.266 13.5625 159.32 13.5625H164.359C165.414 13.5625 166 14.125 166 15.2031V18.1562C166 19.2109 166.586 19.7969 167.641 19.7969H169.094C170.148 19.7969 170.734 20.3594 170.734 21.4375V24.3203C170.734 25.3984 170.148 25.9609 169.094 25.9609H167.641C166.586 25.9609 166 26.5234 166 27.6016V37.75C166 39.1797 166.656 39.8594 168.133 39.8594C168.367 39.8594 168.836 39.8359 169.328 39.7891C170.43 39.6953 171.062 40.2109 171.062 41.3125V44.1719C171.062 45.1562 170.617 45.7656 169.633 46C168.414 46.2578 167.359 46.375 166.211 46.375C160.656 46.375 157.68 43.6562 157.68 38.6875V27.6016C157.68 26.5469 157.094 25.9609 156.039 25.9609H155.875C154.82 25.9609 154.234 25.375 154.234 24.3203V21.4375C154.234 20.3594 154.82 19.7969 155.875 19.7969H156.039C157.094 19.7969 157.68 19.2109 157.68 18.1562V15.2031ZM185.711 46.4922C177.461 46.4922 172.469 41.3828 172.469 32.9922C172.469 24.9062 177.508 19.4688 185.406 19.4688C192.836 19.4688 198.109 24.2266 198.109 32.8516V33.2734C198.109 34.3281 197.523 34.9141 196.469 34.9141H182.43C181.305 34.9141 180.602 35.5703 180.906 36.6719C181.562 39.0859 183.391 40.4688 185.852 40.4688C187.492 40.4688 188.828 39.9531 189.648 38.9453C190.234 38.2188 190.727 37.8203 191.617 37.8203H196.07C197.219 37.8203 197.898 38.3828 197.617 39.2969C196.281 43.7969 191.898 46.4922 185.711 46.4922ZM181.141 28.2812C180.695 29.3828 181.422 30.1094 182.57 30.1094H188.359C189.508 30.1094 190.211 29.3828 189.789 28.2812C189.086 26.4766 187.656 25.4688 185.5 25.4688C183.32 25.4688 181.844 26.5234 181.141 28.2812ZM209.312 44.3594C209.312 45.4141 208.727 46 207.672 46H202.609C201.555 46 200.969 45.4141 200.969 44.3594V21.4375C200.969 20.3828 201.555 19.7969 202.609 19.7969H207.578C208.633 19.7969 209.219 20.3594 209.219 21.4375V22.1641C209.219 23.5234 209.547 23.5703 210.391 22.4688C211.891 20.5703 214.234 19.4688 217.141 19.4688C222.648 19.4688 226.234 23.4062 226.234 29.3125V44.3594C226.234 45.4375 225.648 46 224.594 46H219.531C218.477 46 217.891 45.4141 217.891 44.3594V30.9531C217.891 28.0469 216.344 26.3125 213.695 26.3125C211.07 26.3125 209.312 28.0703 209.312 31.0703V44.3594ZM231.883 15.2031C231.883 14.1484 232.469 13.5625 233.523 13.5625H238.562C239.617 13.5625 240.203 14.125 240.203 15.2031V18.1562C240.203 19.2109 240.789 19.7969 241.844 19.7969H243.297C244.352 19.7969 244.938 20.3594 244.938 21.4375V24.3203C244.938 25.3984 244.352 25.9609 243.297 25.9609H241.844C240.789 25.9609 240.203 26.5234 240.203 27.6016V37.75C240.203 39.1797 240.859 39.8594 242.336 39.8594C242.57 39.8594 243.039 39.8359 243.531 39.7891C244.633 39.6953 245.266 40.2109 245.266 41.3125V44.1719C245.266 45.1562 244.82 45.7656 243.836 46C242.617 46.2578 241.562 46.375 240.414 46.375C234.859 46.375 231.883 43.6562 231.883 38.6875V27.6016C231.883 26.5469 231.297 25.9609 230.242 25.9609H230.078C229.023 25.9609 228.438 25.375 228.438 24.3203V21.4375C228.438 20.3594 229.023 19.7969 230.078 19.7969H230.242C231.297 19.7969 231.883 19.2109 231.883 18.1562V15.2031Z" fill="white"/>
<path d="M29 1.52588e-05C45.0163 1.52588e-05 58 12.9838 58 29C58 45.0163 45.0163 58 29 58C12.9838 58 1.52588e-05 45.0163 1.52588e-05 29C2.45361e-05 12.9838 12.9838 2.45367e-05 29 1.52588e-05ZM34.7998 5.79982C33.2049 5.79994 31.9004 7.10528 31.9004 8.70021V15.6016C31.9004 17.8346 29.4928 19.227 27.5498 18.125L15.7764 11.3096C14.3844 10.4976 12.6148 10.9908 11.8027 12.3828C11.0197 13.7748 11.484 15.5442 12.876 16.3272L18.8496 19.7783C20.7926 20.9093 20.7926 23.6932 18.8496 24.8242L7.07619 31.6104C5.68422 32.4224 5.21998 34.191 6.00294 35.583C6.55395 36.511 7.51138 37.0332 8.52638 37.0332C9.01916 37.0331 9.5118 36.8878 9.9756 36.627L15.9502 33.1758C17.8932 32.074 20.2998 33.4663 20.2998 35.6992V49.2998C20.2998 50.8948 21.6052 52.2002 23.2002 52.2002C24.7951 52.2001 26.0996 50.8948 26.0996 49.2998V42.3985C26.0996 40.1655 28.5072 38.773 30.4502 39.875L42.2236 46.6904C42.6876 46.9514 43.1809 47.0674 43.6738 47.0674C44.6888 47.0674 45.6463 46.5452 46.1973 45.6172C46.9803 44.2252 46.516 42.4559 45.124 41.6729L39.1504 38.2217C37.2074 37.0907 37.2074 34.3068 39.1504 33.1758L50.9238 26.3897C52.3158 25.5777 52.7801 23.809 51.9971 22.417C51.1851 21.0251 49.4164 20.5613 48.0244 21.3731L42.0498 24.8242C40.1069 25.926 37.7002 24.5337 37.7002 22.3008V8.70021C37.7002 7.10521 36.3948 5.79982 34.7998 5.79982Z" fill="#00B38B"/>
</g>
<defs>
<clipPath id="clip0_3_2">
<rect width="246" height="58" fill="white"/>
</clipPath>
</defs>
</svg>
