<svg width="58" height="58" viewBox="0 0 58 58" fill="none" xmlns="http://www.w3.org/2000/svg">
<g clip-path="url(#clip0_9_2)">
<path d="M29 1.52588e-05C45.0163 1.52588e-05 58 12.9838 58 29C58 45.0163 45.0163 58 29 58C12.9838 58 1.52588e-05 45.0163 1.52588e-05 29C2.45361e-05 12.9838 12.9838 2.45367e-05 29 1.52588e-05ZM34.7998 5.79982C33.2049 5.79994 31.9004 7.10528 31.9004 8.70021V15.6016C31.9004 17.8346 29.4928 19.227 27.5498 18.125L15.7764 11.3096C14.3844 10.4976 12.6148 10.9908 11.8027 12.3828C11.0197 13.7748 11.484 15.5442 12.876 16.3272L18.8496 19.7783C20.7926 20.9093 20.7926 23.6932 18.8496 24.8242L7.07619 31.6104C5.68422 32.4224 5.21998 34.191 6.00294 35.583C6.55395 36.511 7.51138 37.0332 8.52638 37.0332C9.01916 37.0331 9.5118 36.8878 9.9756 36.627L15.9502 33.1758C17.8932 32.074 20.2998 33.4663 20.2998 35.6992V49.2998C20.2998 50.8948 21.6052 52.2002 23.2002 52.2002C24.7951 52.2001 26.0996 50.8948 26.0996 49.2998V42.3985C26.0996 40.1655 28.5072 38.773 30.4502 39.875L42.2236 46.6904C42.6876 46.9514 43.1809 47.0674 43.6738 47.0674C44.6888 47.0674 45.6463 46.5452 46.1973 45.6172C46.9803 44.2252 46.516 42.4559 45.124 41.6729L39.1504 38.2217C37.2074 37.0907 37.2074 34.3068 39.1504 33.1758L50.9238 26.3897C52.3158 25.5777 52.7801 23.809 51.9971 22.417C51.1851 21.0251 49.4164 20.5613 48.0244 21.3731L42.0498 24.8242C40.1069 25.926 37.7002 24.5337 37.7002 22.3008V8.70021C37.7002 7.10521 36.3948 5.79982 34.7998 5.79982Z" fill="#00B38B"/>
</g>
<defs>
<clipPath id="clip0_9_2">
<rect width="58" height="58" fill="white"/>
</clipPath>
</defs>
</svg>
